<?xml version="1.0" encoding="UTF-8"?><svg id="uuid-e5ef7ed2-5f0b-4fd1-9338-4ad2a094b9ae" xmlns="http://www.w3.org/2000/svg" viewBox="0 0 584.25 66.41"><defs><style>.uuid-a9934a7c-2f48-40f0-a9d8-5933691a767b{fill-rule:evenodd;}.uuid-a9934a7c-2f48-40f0-a9d8-5933691a767b,.uuid-b9915ad8-a53d-43d2-86bc-51637e95efa1{fill:#fff;}</style></defs><path id="uuid-559b5eed-5989-4160-8141-bb2c9d6dc753" class="uuid-b9915ad8-a53d-43d2-86bc-51637e95efa1" d="M42.56,53.2l-10.6-6.35c-3.81,4.82-6.23,7.22-10.68,7.22-6.13,0-7.27-6.2-5.59-14.01,1.74-8.1,5.57-14.01,11.48-14.01,4.67,0,5.78,2.99,6.58,7.73l13.93-5.03c-1.43-9.63-5.23-15.03-17.78-15.03-13.72,0-25.48,9.92-29.02,26.34-3.25,15.1,2.43,26.34,17.6,26.34,12.11,0,19.2-6.49,24.07-13.21"/><path id="uuid-3d79291e-be72-496f-85d2-990a591183e8" class="uuid-b9915ad8-a53d-43d2-86bc-51637e95efa1" d="M91.14,40c3.66-17-4.05-26.27-17.91-26.27s-25.74,9.41-29.4,26.41c-3.66,17,4.05,26.27,17.91,26.27s25.74-9.41,29.4-26.41ZM76.45,40.14c-1.98,9.19-6.21,13.94-11.9,13.94s-7.99-4.89-6.01-14.08c1.98-9.19,6.21-13.94,11.9-13.94s7.99,4.89,6.01,14.08"/><path id="uuid-e857b099-ae5c-4dba-a75f-799e94eb10d5" class="uuid-b9915ad8-a53d-43d2-86bc-51637e95efa1" d="M133.34,65.61l11-51.07h-13.57l-3,13.94c-.9,4.16-2.28,10.94-2.41,13.21-.64-2.12-3.7-8.9-5.36-12.04l-7.98-15.1h-12.48l-11,51.07h13.57l3.36-15.61c.9-4.16,2.28-10.94,2.41-13.21.83,2.26,3.79,8.83,5.38,11.97l8.55,16.85h11.53Z"/><path id="uuid-dbf9f2aa-c204-4e6c-b94c-db9d642ff798" class="uuid-b9915ad8-a53d-43d2-86bc-51637e95efa1" d="M187.35,26.87l2.66-12.33h-42.75l-2.66,12.33h14.3l-8.34,38.74h14.15l8.34-38.74h14.3Z"/><path id="uuid-94af46eb-35f2-49c3-b7ec-4e63719c8fdd" class="uuid-b9915ad8-a53d-43d2-86bc-51637e95efa1" d="M223.28,65.61l-7.53-51.07h-14.3l-29.53,51.07h15.18l4.71-8.97h15.32l.84,8.97h15.32ZM206.11,45.4h-8.46l1.67-3.36c3.22-6.49,4.64-9.34,6.03-12.77-.08,3.43.12,6.2.53,12.77l.23,3.36Z"/><path id="uuid-77470ccb-19b8-4c30-91fa-c641ab52c09d" class="uuid-b9915ad8-a53d-43d2-86bc-51637e95efa1" d="M240.06,65.61l11-51.07h-14.45l-11,51.07h14.45Z"/><path id="uuid-bd1587be-b106-46d8-9ea7-9c6c7486e517" class="uuid-b9915ad8-a53d-43d2-86bc-51637e95efa1" d="M290.25,65.61l11-51.07h-13.57l-3,13.94c-.9,4.16-2.28,10.94-2.41,13.21-.64-2.12-3.7-8.9-5.36-12.04l-7.98-15.1h-12.48l-11,51.07h13.57l3.36-15.61c.9-4.16,2.28-10.94,2.41-13.21.83,2.26,3.79,8.83,5.38,11.97l8.55,16.85h11.53Z"/><path id="uuid-2c56b604-ea5d-472a-a3b6-8121234355e3" class="uuid-b9915ad8-a53d-43d2-86bc-51637e95efa1" d="M334.89,65.61l2.56-11.89h-25.61l1.89-8.76h15.1l2.53-11.75h-15.1l1.46-6.78h25.1l2.56-11.89h-39.11l-11,51.07h39.62Z"/><path id="uuid-f051603f-1f1d-4fef-b10f-210213cac9e6" class="uuid-b9915ad8-a53d-43d2-86bc-51637e95efa1" d="M382.38,65.61l-6.02-19.48c6.17-2.55,10.76-7.3,12.41-14.96,2.61-12.11-4.37-16.63-16.33-16.63h-22.84l-11,51.07h13.93l3.71-17.22h5.69l4.61,17.22h15.83ZM374.62,31.54c-.79,3.65-3.05,5.69-7.65,5.69h-8.32l2.4-11.16h8.54c4.45,0,5.71,2.26,5.02,5.47"/><path id="uuid-0ffde084-3e0f-4616-b4ef-ed0cf69d25a8" class="uuid-b9915ad8-a53d-43d2-86bc-51637e95efa1" d="M477.46,65.61l11.6-51.07h-14.45l-11.6,51.07h14.45Z"/><path id="uuid-c5147382-c5ff-4306-86a4-99b8d494a102" class="uuid-b9915ad8-a53d-43d2-86bc-51637e95efa1" d="M527.64,65.61l11.6-51.07h-13.57l-3.16,13.94c-.94,4.16-2.41,10.94-2.56,13.21-.61-2.12-3.6-8.9-5.22-12.04l-7.81-15.1h-12.48l-11.6,51.07h13.57l3.54-15.61c.94-4.16,2.41-10.94,2.56-13.21.8,2.26,3.69,8.83,5.24,11.97l8.36,16.85h11.53Z"/><path id="uuid-aa7f770c-84a0-42db-9ce5-dbf67c26fc6d" class="uuid-b9915ad8-a53d-43d2-86bc-51637e95efa1" d="M581.91,43.79l1.41-6.2h-22.47l-2.4,10.58h9.27c-1.38,3.5-3.98,6.27-9.96,6.27-6.57,0-8.89-4.23-6.59-14.37,1.84-8.1,5.44-14.01,12.08-14.01,4.89,0,6.33,2.63,7.02,7l13.98-5.03c-1.48-9.56-5.36-14.3-18.13-14.3-15.47,0-26.34,11.24-29.76,26.34-3.79,16.71,3.58,26.34,17.59,26.34,14.81,0,24.66-8.03,27.97-22.62"/><path class="uuid-a9934a7c-2f48-40f0-a9d8-5933691a767b" d="M401.69,0l-15.46,66.41h51.46l-10.45-25.34,20.88-25.73h8.59l-15.83,18.78,13.57,32.3h1.52L471.44,0h-69.75ZM420.52,66.41h-24.29l8.34-34.42h18.99l-3.04,34.42ZM424.27,28.95h-18.9l.25-1.42h18.9l-.25,1.42ZM424.72,26.35h-18.9l.47-11.02,4.49,5.51,3.4-5.51,2.05,5.51,3.96-5.51,1.48,5.51,6.4-5.51-3.35,11.02ZM460.96,21.23c-1.65,0-2.92-1.33-2.92-2.92v-.02c0-1.6,1.29-2.94,2.92-2.94s2.92,1.33,2.92,2.92v.02c0,1.6-1.29,2.94-2.92,2.94Z"/><path class="uuid-a9934a7c-2f48-40f0-a9d8-5933691a767b" d="M460.96,15.66c-1.46,0-2.59,1.19-2.59,2.62v.02c0,1.43,1.11,2.61,2.59,2.61s2.59-1.19,2.59-2.62v-.02c0-1.43-1.11-2.61-2.59-2.61ZM461.44,19.76l-.59-.87h-.22v.87h-1.04v-3.09h1.51c.87,0,1.41.37,1.41,1.08,0,.49-.24.79-.62.96l.72,1.06h-1.18Z"/><path class="uuid-a9934a7c-2f48-40f0-a9d8-5933691a767b" d="M461.09,17.53h-.45v.61h.44c.25,0,.4-.1.4-.3s-.13-.3-.39-.3Z"/></svg>