<?xml version="1.0" encoding="UTF-8"?><svg id="uuid-e504fcbe-6235-44a0-9e0c-6f8cfc9dd7ff" xmlns="http://www.w3.org/2000/svg" xmlns:xlink="http://www.w3.org/1999/xlink" viewBox="0 0 100.65 87.04"><defs><style>.uuid-1b9bc8f6-963a-4d41-a6ea-f00f39431b37{fill:url(#uuid-036a783b-b750-4fb9-9b65-c68e30aaafcd);}.uuid-8f406532-337b-44a3-84d6-95f1a7dd2a1f{fill:#00a7d0;}.uuid-88f196eb-783c-4892-9ec6-0f55835f59ce{fill:url(#uuid-56a63dec-0f4d-4be0-a59d-896521007e9f);}</style><linearGradient id="uuid-56a63dec-0f4d-4be0-a59d-896521007e9f" x1="80.3" y1="33.41" x2="89.64" y2="33.41" gradientUnits="userSpaceOnUse"><stop offset="0" stop-color="#00a3ce"/><stop offset="1" stop-color="#01a7d0"/></linearGradient><linearGradient id="uuid-036a783b-b750-4fb9-9b65-c68e30aaafcd" x1="0" y1="43.52" x2="100.65" y2="43.52" gradientUnits="userSpaceOnUse"><stop offset="0" stop-color="#008eba"/><stop offset="1" stop-color="#00a9d3"/></linearGradient></defs><path class="uuid-8f406532-337b-44a3-84d6-95f1a7dd2a1f" d="M85.91,32.62c0,.37-.27.54-.72.54h-.8v-1.1h.81c.46,0,.7.17.7.55h0s.01,0,.01,0Z"/><path class="uuid-88f196eb-783c-4892-9ec6-0f55835f59ce" d="M84.97,28.69h0c-2.66.01-4.67,2.15-4.67,4.73v.03c0,2.57,2,4.69,4.67,4.69s4.67-2.15,4.67-4.73v-.03c0-2.57-2-4.69-4.67-4.69h0ZM85.83,36.1l-1.05-1.58h-.39v1.58h-1.88v-5.57h2.72c1.58,0,2.55.67,2.55,1.92,0,.88-.42,1.42-1.12,1.72l1.29,1.91h-2.12v.02Z"/><path class="uuid-1b9bc8f6-963a-4d41-a6ea-f00f39431b37" d="M89.23,0H18.02L.15,75.31c-1.42,6.05,7.87,11.73,7.87,11.73h14.88L13.52,28.62h18.78l8.08,49.85,30.77-49.85h6.47l-35.93,58.42h40.26L100.65,8.3S95.91,0,89.24,0h0-.02ZM90.25,33.42c0,2.87-2.33,5.29-5.27,5.29h0c-2.94,0-5.27-2.39-5.27-5.25v-.03c0-2.87,2.33-5.31,5.27-5.31s5.27,2.4,5.27,5.27v.03h0Z"/></svg>