<?xml version="1.0" encoding="UTF-8"?><svg id="uuid-72375a60-7406-4229-8edf-73ac35f33f60" xmlns="http://www.w3.org/2000/svg" xmlns:xlink="http://www.w3.org/1999/xlink" viewBox="0 0 497.34 109.37"><defs><style>.uuid-4b28c68f-976d-43e3-a0bf-bc3d67184641{fill:url(#uuid-539d7de3-2834-4f3f-87bc-3ec6d602daea);}.uuid-b079b941-705b-40e1-82d6-1c5fc7518c71{fill:url(#uuid-2a8caa43-8525-4b80-a2a1-2d5574de0969);}.uuid-7bb5040f-3007-45cf-b986-42a711c194be{fill:#00a7d0;}.uuid-38d30c85-020d-4866-85d2-40920410da89{fill:#1a1a1a;}</style><linearGradient id="uuid-539d7de3-2834-4f3f-87bc-3ec6d602daea" x1="209.16" y1="33.41" x2="218.5" y2="33.41" gradientUnits="userSpaceOnUse"><stop offset="0" stop-color="#00a3ce"/><stop offset="1" stop-color="#01a7d0"/></linearGradient><linearGradient id="uuid-2a8caa43-8525-4b80-a2a1-2d5574de0969" x1="128.86" y1="43.52" x2="229.51" y2="43.52" gradientUnits="userSpaceOnUse"><stop offset="0" stop-color="#008eba"/><stop offset="1" stop-color="#00a9d3"/></linearGradient></defs><g id="uuid-8322e687-140b-4c49-b8be-abad26ec3d3c"><path id="uuid-d0c29c5d-2137-4361-8667-77d8782c6078" class="uuid-38d30c85-020d-4866-85d2-40920410da89" d="M21.81,43.03l-8.89,41.7H0l8.86-41.7h12.95ZM65.71,51.4l-13.17,4.28c-.22-1.57-.8-2.72-1.74-3.45-1.22-.96-2.74-1.44-4.55-1.44s-3.29.41-4.55,1.22c-1.12.71-1.68,1.56-1.68,2.54,0,.77.44,1.42,1.31,1.92.77.45,1.98.86,3.6,1.22.24.06,1.89.38,4.95.95,4.07.77,7.08,1.88,9.01,3.33,1.3.98,2.22,2.35,2.75,4.12.24.86.37,1.76.37,2.72,0,4.42-2.12,8.33-6.35,11.73-4.32,3.48-10.01,5.22-17.08,5.22-5.42,0-9.46-.68-12.13-2.05-2.46-1.24-4.27-2.83-5.41-4.77-.57-.98-1.05-2.45-1.44-4.43l14.14-3.51c.35,1.32.79,2.26,1.34,2.81,1.32,1.34,3.38,2.02,6.17,2.02,2.08,0,3.65-.38,4.7-1.13.86-.61,1.28-1.37,1.28-2.29,0-.83-.5-1.53-1.5-2.08-.69-.39-1.85-.74-3.48-1.07-.2-.06-1.68-.34-4.43-.82-2.57-.45-4.87-1.33-6.9-2.66-3.05-1.96-4.58-4.7-4.58-8.25,0-1.85.51-3.74,1.53-5.65,3.48-6.6,10.51-9.9,21.08-9.9,6.54,0,11.05,1.12,13.53,3.36,1.28,1.14,2.18,2.37,2.69,3.7.2.55.38,1.33.52,2.35h.02ZM97.6,41.99c4.79,0,8.82.83,12.1,2.5,5.34,2.77,8,7,8,12.68,0,4.38-.85,8.68-2.54,12.89-2.42,5.95-6.97,10.33-13.62,13.14-4.01,1.71-8.58,2.57-13.72,2.57-7.92,0-13.68-2.09-17.26-6.26-2.1-2.44-3.15-5.44-3.15-8.98,0-4.28.87-8.54,2.6-12.8,2.42-5.97,6.95-10.36,13.59-13.17,4.01-1.71,8.68-2.57,13.99-2.57h.01ZM95.25,52.01c-4.75,0-8.34,2.05-10.78,6.14-1.77,2.95-2.66,5.88-2.66,8.77,0,5.91,2.76,8.86,8.28,8.86,4.6,0,8.14-2.05,10.6-6.14,1.77-2.97,2.66-5.91,2.66-8.8,0-5.89-2.7-8.83-8.1-8.83Z"/><path id="uuid-b7bbb4a0-202b-4aa1-b52c-f0ede3b3a8c6" class="uuid-38d30c85-020d-4866-85d2-40920410da89" d="M299.23,74.13c2.06,0,3.65.64,4.77,1.92.69.79,1.04,1.78,1.04,2.96,0,1.79-.69,3.38-2.08,4.77-1.71,1.73-3.85,2.6-6.42,2.6-2.1,0-3.71-.64-4.83-1.92-.69-.79-1.04-1.78-1.04-2.96,0-1.79.69-3.38,2.08-4.77,1.69-1.73,3.85-2.6,6.48-2.6ZM348.94,65.24l-12.92,3.21c.2-.96.31-1.71.31-2.26,0-2.34-1.16-3.51-3.48-3.51-2.75,0-4.85,1.54-6.29,4.61-1.28,2.79-1.92,5.38-1.92,7.76,0,2.75,1.3,4.12,3.91,4.12,2.81,0,4.89-2.01,6.23-6.02l12.1,2.96c-1.38,2.69-2.93,4.69-4.64,6.02-3.65,2.85-8.98,4.28-16.01,4.28-4.97,0-8.57-.91-10.81-2.72-2.3-1.85-3.45-4.68-3.45-8.49s.93-7.12,2.78-10.29c1.98-3.36,4.68-5.83,8.13-7.42,2.79-1.3,6.57-1.96,11.33-1.96,4.48,0,7.81.56,9.99,1.68,2.06,1.06,3.44,2.48,4.15,4.28.35.83.55,2.09.61,3.76h-.02ZM373.56,55.52c6.07,0,10.29.98,12.68,2.93,2.04,1.69,3.05,4.29,3.05,7.79,0,4.24-1.14,8.14-3.42,11.7-2.59,4.05-6.12,6.56-10.6,7.51-2.99.63-6.47.95-10.42.95-6.74,0-11.16-1.29-13.26-3.88-1.3-1.61-1.96-3.7-1.96-6.26,0-3.36.67-6.62,2.02-9.78,1.24-2.89,2.94-5.15,5.1-6.78,2.42-1.83,5.16-3,8.22-3.51,2.57-.45,5.43-.67,8.58-.67h.01ZM371.08,63.98c-2.81,0-4.95,1.04-6.42,3.12-1.22,1.75-1.83,3.74-1.83,5.96,0,3.22,1.72,4.83,5.16,4.83,2.75,0,4.87-1.04,6.35-3.12,1.22-1.73,1.83-3.72,1.83-5.96,0-3.22-1.7-4.83-5.1-4.83h.01ZM400.72,74.13c2.06,0,3.65.64,4.77,1.92.69.79,1.04,1.78,1.04,2.96,0,1.79-.69,3.38-2.08,4.77-1.71,1.73-3.85,2.6-6.42,2.6-2.1,0-3.71-.64-4.83-1.92-.69-.79-1.04-1.78-1.04-2.96,0-1.79.69-3.38,2.08-4.77,1.69-1.73,3.85-2.6,6.48-2.6h0ZM435.79,85.55l.82-3.85c-2.22,1.65-4.02,2.77-5.41,3.36-2.1.88-4.3,1.31-6.6,1.31-3.67,0-6.54-.85-8.61-2.54-1.47-1.2-2.2-2.92-2.2-5.16,0-1.3.29-3.28.86-5.93l3.48-16.4h12.1l-2.69,12.68c-.33,1.51-.49,2.78-.49,3.82,0,1.41.61,2.39,1.83,2.96.9.41,1.92.61,3.09.61,1.57,0,2.98-.4,4.25-1.19,1.18-.75,2-1.89,2.44-3.42.08-.26.29-1.13.61-2.6l2.72-12.86h12.1l-6.2,29.2h-12.1,0ZM476.17,41.75l-5.71,26.85,12.16-12.25h14.72l-13.38,12.34,9.1,16.86h-17.53l-5.83-13.32-2.84,13.32h-12.1l9.32-43.81h12.1-.01Z"/><path id="uuid-36410e45-c3df-4bc5-8d88-2cf3e86c0f82" class="uuid-38d30c85-020d-4866-85d2-40920410da89" d="M234.59,55.85c-2.32-1.66-3.85-3.13-4.59-4.41-.89-1.52-1.34-3.18-1.34-4.99,0-3.45.89-6.73,2.67-9.85,2.2-3.8,5.82-6.66,10.88-8.56,4.75-1.81,10.13-2.72,16.13-2.72s10.9.88,14.89,2.63c4.96,2.23,7.44,5.75,7.44,10.56,0,3.8-.94,7.16-2.81,10.07-.98,1.57-2.18,2.93-3.61,4.06-1.1.86-2.79,1.93-5.08,3.21,2.11.89,3.63,1.77,4.55,2.63,2.02,1.96,3.03,4.52,3.03,7.67s-.76,6.12-2.27,9.09c-2.35,4.58-6.09,8.01-11.23,10.3-4.58,2.05-10.67,3.08-18.27,3.08-6.66,0-11.75-.73-15.29-2.18-5.79-2.41-8.69-6.6-8.69-12.57,0-4.19,1.22-7.95,3.65-11.28,1.46-1.99,3.21-3.57,5.26-4.72,1.01-.59,2.57-1.26,4.68-2.01h0ZM255.58,38.33c-3.57,0-6.27.86-8.11,2.59-1.31,1.28-1.96,2.7-1.96,4.28,0,1.4.52,2.54,1.56,3.43,1.37,1.16,3.3,1.74,5.79,1.74,3.65,0,6.46-1.03,8.42-3.08,1.25-1.28,1.87-2.69,1.87-4.23,0-1.37-.55-2.44-1.65-3.21-1.4-1.01-3.37-1.52-5.93-1.52h0ZM250.68,62c-4.43,0-7.7,1.01-9.81,3.03-1.46,1.37-2.18,2.93-2.18,4.68,0,1.6.71,2.91,2.14,3.92,1.75,1.28,4.06,1.92,6.91,1.92,3.92,0,7.09-1.07,9.49-3.21,1.63-1.43,2.45-3.09,2.45-4.99,0-1.52-.61-2.7-1.83-3.57-1.75-1.19-4.15-1.78-7.18-1.78h0Z"/><path id="uuid-afe7a246-3f62-4584-b833-cd63a2514e8b" class="uuid-38d30c85-020d-4866-85d2-40920410da89" d="M459.97,109.21l3.38-14.39h-4.21l-3.38,14.39h4.21Z"/><path id="uuid-9325824e-ce9d-4d48-a89e-4af9df7d03dd" class="uuid-38d30c85-020d-4866-85d2-40920410da89" d="M322.45,105.61l-3.11-1.8c-1.12,1.37-1.83,2.05-3.14,2.05-1.8,0-2.14-1.76-1.64-3.98.51-2.3,1.64-3.98,3.37-3.98,1.37,0,1.7.85,1.93,2.2l4.09-1.43c-.42-2.74-1.54-4.27-5.22-4.27-4.03,0-7.49,2.82-8.53,7.48-.96,4.29.71,7.48,5.17,7.48,3.56,0,5.64-1.84,7.07-3.75"/><path id="uuid-21b530be-bcd7-4438-9bb9-0cd1ddccf08b" class="uuid-38d30c85-020d-4866-85d2-40920410da89" d="M338.3,101.86c1.08-4.83-1.19-7.46-5.26-7.46s-7.56,2.67-8.64,7.5c-1.08,4.83,1.19,7.46,5.26,7.46s7.56-2.67,8.64-7.5h0ZM333.98,101.9c-.58,2.61-1.82,3.96-3.5,3.96s-2.35-1.39-1.77-4c.58-2.61,1.83-3.96,3.5-3.96s2.35,1.39,1.77,4"/><path id="uuid-acb5be07-17e9-4746-bace-8f15ccdefc00" class="uuid-38d30c85-020d-4866-85d2-40920410da89" d="M352.26,109.14l3.23-14.51h-3.99l-.88,3.96c-.26,1.18-.67,3.11-.71,3.75-.19-.6-1.09-2.53-1.57-3.42l-2.35-4.29h-3.67l-3.23,14.51h3.99l.99-4.44c.26-1.18.67-3.11.71-3.75.24.64,1.11,2.51,1.58,3.4l2.51,4.79h3.39Z"/><path id="uuid-0ef71632-f462-4ed1-94f2-eca9ce802f8a" class="uuid-38d30c85-020d-4866-85d2-40920410da89" d="M369.7,98.13l.78-3.5h-12.56l-.78,3.5h4.2l-2.45,11.01h4.16l2.45-11.01h4.2,0Z"/><path id="uuid-0831ab54-4d47-4aa3-bfdb-07b276ad5102" class="uuid-38d30c85-020d-4866-85d2-40920410da89" d="M381.83,109.14l-2.21-14.51h-4.2l-8.68,14.51h4.46l1.38-2.55h4.5l.25,2.55h4.5ZM376.78,103.39h-2.49l.49-.95c.95-1.84,1.36-2.65,1.77-3.63-.02.97.03,1.76.16,3.63l.07.95Z"/><path id="uuid-44c82679-6558-40b7-8c4b-e230957f4605" class="uuid-38d30c85-020d-4866-85d2-40920410da89" d="M388.32,109.14l3.23-14.51h-4.24l-3.23,14.51h4.24Z"/><path id="uuid-9ab337ae-cad0-423a-b130-f01a452a28f6" class="uuid-38d30c85-020d-4866-85d2-40920410da89" d="M404.64,109.14l3.23-14.51h-3.99l-.88,3.96c-.26,1.18-.67,3.11-.71,3.75-.19-.6-1.09-2.53-1.58-3.42l-2.35-4.29h-3.67l-3.23,14.51h3.99l.99-4.44c.26-1.18.67-3.11.71-3.75.24.64,1.11,2.51,1.58,3.4l2.51,4.79h3.4Z"/><path id="uuid-cddf367e-4968-4a5d-bde7-4298e140681f" class="uuid-38d30c85-020d-4866-85d2-40920410da89" d="M419.32,109.14l.75-3.38h-7.52l.55-2.49h4.44l.74-3.34h-4.44l.43-1.93h7.37l.75-3.38h-11.49l-3.23,14.51h11.65Z"/><path id="uuid-c978c30c-00fe-4cde-bca4-670b2ce6e80c" class="uuid-38d30c85-020d-4866-85d2-40920410da89" d="M434.84,109.14l-1.77-5.53c1.81-.73,3.16-2.07,3.65-4.25.77-3.44-1.28-4.73-4.8-4.73h-6.71l-3.23,14.51h4.09l1.09-4.89h1.67l1.35,4.89h4.66ZM432.56,99.46c-.23,1.04-.9,1.62-2.25,1.62h-2.44l.71-3.17h2.51c1.31,0,1.68.64,1.48,1.55"/><path id="uuid-fe0afd22-2bed-4955-b6c9-eaceec0b5217" class="uuid-38d30c85-020d-4866-85d2-40920410da89" d="M475.54,109.36l3.41-14.51h-3.99l-.93,3.96c-.28,1.18-.71,3.11-.75,3.75-.18-.6-1.06-2.53-1.53-3.42l-2.29-4.29h-3.67l-3.41,14.51h3.99l1.04-4.44c.28-1.18.71-3.11.75-3.75.23.64,1.08,2.51,1.54,3.4l2.46,4.79h3.39-.01Z"/><path id="uuid-067e71e6-1dad-4c2f-8c6b-26e2be522be8" class="uuid-38d30c85-020d-4866-85d2-40920410da89" d="M493.05,102.94l.41-1.76h-6.6l-.71,3.01h2.72c-.41.99-1.17,1.78-2.93,1.78-1.93,0-2.61-1.2-1.94-4.08.54-2.3,1.6-3.98,3.55-3.98,1.44,0,1.86.75,2.06,1.99l4.11-1.43c-.43-2.72-1.58-4.06-5.33-4.06-4.54,0-7.74,3.19-8.75,7.48-1.11,4.75,1.05,7.48,5.17,7.48,4.35,0,7.25-2.28,8.22-6.43"/><path id="uuid-12086c24-b920-4d57-9e66-16d265ab4850" class="uuid-38d30c85-020d-4866-85d2-40920410da89" d="M454.88,94.85l-4.65,5.33,3.99,9.18h-4.93l-3.07-7.2,6.14-7.31s2.52,0,2.52,0Z"/><path id="uuid-2e394014-dc5c-4f78-9a02-4e874ae45ccd" class="uuid-38d30c85-020d-4866-85d2-40920410da89" d="M444.25,109.3h-7.14l2.45-9.72h5.58l-.89,9.72h0Z"/><path id="uuid-aef48082-4062-4550-a219-40c3816de67f" class="uuid-38d30c85-020d-4866-85d2-40920410da89" d="M444.58,96.42l-.44-1.57-1.16,1.57-.6-1.57-1,1.57-1.32-1.57-.14,3.13h5.55l.98-3.13-1.88,1.57h.01Z"/><path id="uuid-9af18ebb-3bfa-4bc2-95e7-44d7c59de48b" class="uuid-38d30c85-020d-4866-85d2-40920410da89" d="M445.35,98.72h-5.55l.07-.4h5.55l-.07.4Z"/></g><path class="uuid-7bb5040f-3007-45cf-b986-42a711c194be" d="M214.77,32.62c0,.37-.27.54-.72.54h-.8v-1.1h.81c.46,0,.7.17.7.55h0s.01,0,.01,0Z"/><path class="uuid-4b28c68f-976d-43e3-a0bf-bc3d67184641" d="M213.83,28.69h0c-2.66.01-4.67,2.15-4.67,4.73v.03c0,2.57,2,4.69,4.67,4.69s4.67-2.15,4.67-4.73v-.03c0-2.57-2-4.69-4.67-4.69h0ZM214.69,36.1l-1.05-1.58h-.39v1.58h-1.88v-5.57h2.72c1.58,0,2.55.67,2.55,1.92,0,.88-.42,1.42-1.12,1.72l1.29,1.91h-2.12v.02Z"/><path class="uuid-b079b941-705b-40e1-82d6-1c5fc7518c71" d="M218.09,0h-71.21l-17.87,75.3c-1.42,6.05,7.87,11.73,7.87,11.73h14.88l-9.38-58.42h18.78l8.08,49.85,30.77-49.85h6.47l-35.93,58.42h40.26l18.7-78.74s-4.74-8.3-11.41-8.3h0-.02ZM219.11,33.42c0,2.87-2.33,5.29-5.27,5.29h0c-2.94,0-5.27-2.39-5.27-5.25v-.03c0-2.87,2.33-5.31,5.27-5.31s5.27,2.4,5.27,5.27v.03h0Z"/></svg>