<?xml version="1.0" encoding="UTF-8"?><svg id="uuid-5372c229-2dc4-419c-8897-5e22b4ec905b" xmlns="http://www.w3.org/2000/svg" viewBox="0 0 495.43 428.5"><defs><style>.uuid-5890fdb9-7259-4d38-b01b-354f0c59bd85{fill:#fff;}</style></defs><path class="uuid-5890fdb9-7259-4d38-b01b-354f0c59bd85" d="M423,160.57c0,1.8-1.35,2.64-3.54,2.64h-3.92v-5.4h3.99c2.25,0,3.47.84,3.47,2.7h0v.06Z"/><path class="uuid-5890fdb9-7259-4d38-b01b-354f0c59bd85" d="M418.36,141.21h0c-13.12.06-22.97,10.61-22.97,23.29v.13c0,12.67,9.84,23.09,22.97,23.09s22.97-10.61,22.97-23.29v-.13c0-12.67-9.84-23.09-22.97-23.09ZM422.61,177.68l-5.15-7.78h-1.93v7.78h-9.26v-27.4h13.38c7.78,0,12.54,3.28,12.54,9.46,0,4.31-2.06,7.01-5.53,8.49l6.37,9.39h-10.42v.06Z"/><path class="uuid-5890fdb9-7259-4d38-b01b-354f0c59bd85" d="M439.34,0H88.73L.73,370.74c-7.01,29.78,38.73,57.77,38.73,57.77h73.27l-46.19-287.62h92.44l39.76,245.42,151.5-245.42h31.84l-176.91,287.62h198.2L495.43,40.85S472.08,0,439.27,0h.06ZM444.35,164.49c0,14.15-11.45,26.05-25.93,26.05h0c-14.47.06-25.93-11.77-25.93-25.86v-.13c0-14.15,11.45-26.12,25.93-26.12s25.93,11.84,25.93,25.93v.13Z"/></svg>