<?xml version="1.0" encoding="UTF-8" standalone="no"?>
<!-- Created with Inkscape (http://www.inkscape.org/) -->

<svg
   width="26.62969mm"
   height="23.029337mm"
   viewBox="0 0 26.62969 23.029337"
   version="1.1"
   id="svg1"
   xmlns="http://www.w3.org/2000/svg"
   xmlns:svg="http://www.w3.org/2000/svg">
  <defs
     id="defs1">
    <linearGradient
       id="uuid-2a8caa43-8525-4b80-a2a1-2d5574de0969"
       x1="128.86"
       y1="43.52"
       x2="229.50999"
       y2="43.52"
       gradientUnits="userSpaceOnUse"
       gradientTransform="matrix(0.26458333,0,0,0.26458333,123.33225,107.42348)">
      <stop
         offset="0"
         stop-color="#008eba"
         id="stop3" />
      <stop
         offset="1"
         stop-color="#00a9d3"
         id="stop4" />
    </linearGradient>
    <linearGradient
       id="uuid-539d7de3-2834-4f3f-87bc-3ec6d602daea"
       x1="209.16"
       y1="33.41"
       x2="218.5"
       y2="33.41"
       gradientUnits="userSpaceOnUse"
       gradientTransform="matrix(0.26458333,0,0,0.26458333,123.33225,107.42348)">
      <stop
         offset="0"
         stop-color="#00a3ce"
         id="stop1" />
      <stop
         offset="1"
         stop-color="#01a7d0"
         id="stop2" />
    </linearGradient>
  </defs>
  <g
     id="layer1"
     transform="translate(-157.42708,-107.42084)">
    <path
       class="uuid-7bb5040f-3007-45cf-b986-42a711c194be"
       d="m 180.15681,116.05419 c 0,0.0979 -0.0714,0.14287 -0.1905,0.14287 h -0.21166 v -0.29104 h 0.21431 c 0.12171,0 0.18521,0.045 0.18521,0.14552 v 0 c 0,0 0.003,0 0.003,0 z"
       id="path4"
       style="fill:#00a7d0;stroke-width:0.264583" />
    <path
       class="uuid-4b28c68f-976d-43e3-a0bf-bc3d67184641"
       d="m 179.9081,115.01438 v 0 c -0.70379,0.003 -1.2356,0.56885 -1.2356,1.25147 v 0.008 c 0,0.67998 0.52917,1.2409 1.2356,1.2409 0.70644,0 1.23561,-0.56886 1.23561,-1.25148 v -0.008 c 0,-0.67998 -0.52917,-1.24089 -1.23561,-1.24089 z m 0.22755,1.96056 -0.27782,-0.41804 h -0.10318 v 0.41804 h -0.49742 v -1.47373 h 0.71967 c 0.41804,0 0.67468,0.17727 0.67468,0.508 0,0.23283 -0.11112,0.37571 -0.29633,0.45508 l 0.34131,0.50536 h -0.56091 z"
       id="path5"
       style="fill:url(#uuid-539d7de3-2834-4f3f-87bc-3ec6d602daea);stroke-width:0.264583" />
    <path
       class="uuid-b079b941-705b-40e1-82d6-1c5fc7518c71"
       d="m 181.03523,107.42348 h -18.84098 l -4.7281,19.92312 c -0.37571,1.60073 2.08227,3.10357 2.08227,3.10357 h 3.937 l -2.4818,-15.45696 h 4.96888 l 2.13783,13.18948 8.14123,-13.18948 h 1.71186 l -9.50648,15.45696 h 10.65212 l 4.94771,-20.83329 c 0,0 -1.25412,-2.19605 -3.0189,-2.19605 v 0 h -0.005 z m 0.26987,8.84237 c 0,0.75936 -0.61648,1.39965 -1.39435,1.39965 v 0 c -0.77788,0 -1.39435,-0.63235 -1.39435,-1.38906 v -0.008 c 0,-0.75935 0.61647,-1.40494 1.39435,-1.40494 0.77787,0 1.39435,0.635 1.39435,1.39436 z"
       id="path6"
       style="fill:url(#uuid-2a8caa43-8525-4b80-a2a1-2d5574de0969);stroke-width:0.264583" />
  </g>
</svg>
