<?xml version="1.0" encoding="UTF-8"?><svg id="uuid-0fb1c783-8eea-4744-b783-498f38b7ffab" xmlns="http://www.w3.org/2000/svg" viewBox="0 0 992.43 494.51"><path d="M423,204.57c0,1.8-1.35,2.64-3.54,2.64h-3.92v-5.4h3.99c2.25,0,3.47.84,3.47,2.7h0v.06h0Z"/><path d="M418.36,185.21h0c-13.12.06-22.97,10.61-22.97,23.29v.13c0,12.67,9.84,23.09,22.97,23.09s22.97-10.61,22.97-23.29v-.13c0-12.67-9.84-23.09-22.97-23.09h0ZM422.61,221.68l-5.15-7.78h-1.93v7.78h-9.26v-27.4h13.38c7.78,0,12.54,3.28,12.54,9.46,0,4.31-2.06,7.01-5.53,8.49l6.37,9.39h-10.42v.06h0Z"/><path d="M936.34,0H88.73L.73,436.74c-7.01,29.78,38.73,57.77,38.73,57.77h73.27l-46.19-309.62h92.44l39.76,267.42,151.5-267.42h31.84l-176.91,309.62h695.2l92.06-453.66S969.08,0,936.27,0h.07ZM444.35,208.49c0,14.15-11.45,26.05-25.93,26.05h0c-14.47.06-25.93-11.77-25.93-25.86v-.13c0-14.15,11.45-26.12,25.93-26.12s25.93,11.84,25.93,25.93v.13h0Z"/></svg>